<svg width="30" height="30" viewBox="0 0 30 30" fill="none" xmlns="http://www.w3.org/2000/svg">
<mask id="mask0_83_499" style="mask-type:alpha" maskUnits="userSpaceOnUse" x="0" y="0" width="30" height="30">
<rect width="30" height="30" fill="#D9D9D9"/>
</mask>
<g mask="url(#mask0_83_499)">
<path d="M10.4234 15.9375C9.9779 15.9375 9.75482 16.4761 10.0698 16.7911L15.6683 22.3895C16.0366 22.7578 16.0344 23.3556 15.6634 23.7212V23.7212C15.2962 24.0831 14.7059 24.0809 14.3414 23.7164L6.33211 15.7071C5.94158 15.3166 5.94158 14.6834 6.33211 14.2929L14.3414 6.28361C14.7059 5.9191 15.2962 5.91694 15.6634 6.27879V6.27879C16.0344 6.64439 16.0366 7.24219 15.6683 7.61049L10.0698 13.2089C9.75482 13.5239 9.97791 14.0625 10.4234 14.0625H23.4375C23.9553 14.0625 24.375 14.4822 24.375 15V15C24.375 15.5178 23.9553 15.9375 23.4375 15.9375H10.4234Z" fill="#333333"/>
</g>
</svg>
