<svg width="30" height="30" viewBox="0 0 30 30" fill="none" xmlns="http://www.w3.org/2000/svg">
<mask id="mask0_51_58" style="mask-type:alpha" maskUnits="userSpaceOnUse" x="0" y="0" width="30" height="30">
<rect width="30" height="30" fill="#D9D9D9"/>
</mask>
<g mask="url(#mask0_51_58)">
<path d="M7.8125 16.4062C7.8125 16.924 8.23223 17.3438 8.75 17.3438H16.25C16.7678 17.3438 17.1875 16.924 17.1875 16.4062V16.4062C17.1875 15.8885 16.7678 15.4688 16.25 15.4688H8.75C8.23223 15.4688 7.8125 15.8885 7.8125 16.4062V16.4062ZM7.8125 12.6562C7.8125 13.174 8.23223 13.5938 8.75 13.5938H21.25C21.7678 13.5938 22.1875 13.174 22.1875 12.6562V12.6562C22.1875 12.1385 21.7678 11.7188 21.25 11.7188H8.75C8.23223 11.7188 7.8125 12.1385 7.8125 12.6562V12.6562ZM7.8125 8.90625C7.8125 9.42402 8.23223 9.84375 8.75 9.84375H21.25C21.7678 9.84375 22.1875 9.42402 22.1875 8.90625V8.90625C22.1875 8.38848 21.7678 7.96875 21.25 7.96875H8.75C8.23223 7.96875 7.8125 8.38848 7.8125 8.90625V8.90625ZM20.9251 25.6156C20.5296 26.2129 19.6529 26.2129 19.2574 25.6156L17.1361 22.4115C17.0435 22.2716 16.8869 22.1875 16.7192 22.1875H5.38469C4.76323 22.1875 4.23125 21.9663 3.78875 21.5238C3.34625 21.0813 3.125 20.5493 3.125 19.9278V5.38469C3.125 4.76323 3.34625 4.23125 3.78875 3.78875C4.23125 3.34625 4.76323 3.125 5.38469 3.125H24.6153C25.2368 3.125 25.7688 3.34625 26.2113 3.78875C26.6538 4.23125 26.875 4.76323 26.875 5.38469V19.9278C26.875 20.5493 26.6538 21.0813 26.2113 21.5238C25.7688 21.9663 25.2368 22.1875 24.6153 22.1875H23.4633C23.2956 22.1875 23.139 22.2716 23.0464 22.4115L20.9251 25.6156ZM19.6738 22.8594C19.8714 23.1592 20.3111 23.1592 20.5087 22.8594L21.8911 20.7622C22.0761 20.4814 22.3898 20.3125 22.7261 20.3125H24.6153C24.7276 20.3125 24.8198 20.2765 24.8919 20.2044C24.964 20.1323 25 20.0401 25 19.9278V5.38469C25 5.2724 24.964 5.18021 24.8919 5.10813C24.8198 5.03604 24.7276 5 24.6153 5H5.38469C5.2724 5 5.18021 5.03604 5.10813 5.10813C5.03604 5.18021 5 5.2724 5 5.38469V19.9278C5 20.0401 5.03604 20.1323 5.10813 20.2044C5.18021 20.2765 5.2724 20.3125 5.38469 20.3125H17.4564C17.7927 20.3125 18.1064 20.4814 18.2914 20.7622L19.6738 22.8594Z" fill="#333333"/>
</g>
</svg>
