<svg width="30" height="30" viewBox="0 0 30 30" fill="none" xmlns="http://www.w3.org/2000/svg">
<mask id="mask0_51_57" style="mask-type:alpha" maskUnits="userSpaceOnUse" x="0" y="0" width="30" height="30">
<rect width="30" height="30" fill="#D9D9D9"/>
</mask>
<g mask="url(#mask0_51_57)">
<path d="M25.0865 25.0624C24.7227 25.4263 24.1329 25.4263 23.7691 25.0625L17.2197 18.5128C16.8552 18.1483 16.2768 18.1278 15.8392 18.4001C15.4032 18.6714 14.9304 18.8986 14.4206 19.0816C13.6081 19.3732 12.7676 19.5191 11.8991 19.5191C9.76261 19.5191 7.95448 18.7794 6.47469 17.3C4.9949 15.8206 4.255 14.0129 4.255 11.8769C4.255 9.74105 4.99469 7.93271 6.47407 6.45188C7.95344 4.97125 9.76115 4.23094 11.8972 4.23094C14.033 4.23094 15.8414 4.97084 17.3222 6.45063C18.8028 7.93042 19.5431 9.73855 19.5431 11.875C19.5431 12.7677 19.3933 13.6203 19.0938 14.4328C18.9093 14.9328 18.6869 15.3928 18.4265 15.8126C18.1541 16.252 18.1738 16.8326 18.5394 17.1981L25.0864 23.7452C25.4502 24.1089 25.4502 24.6986 25.0865 25.0624V25.0624ZM11.8991 17.6444C13.5097 17.6444 14.8739 17.0854 15.9916 15.9675C17.1095 14.8498 17.6684 13.4856 17.6684 11.875C17.6684 10.2644 17.1095 8.90021 15.9916 7.7825C14.8739 6.66459 13.5097 6.10563 11.8991 6.10563C10.2884 6.10563 8.92428 6.66459 7.80657 7.7825C6.68865 8.90021 6.12969 10.2644 6.12969 11.875C6.12969 13.4856 6.68865 14.8498 7.80657 15.9675C8.92428 17.0854 10.2884 17.6444 11.8991 17.6444Z" fill="#333333"/>
</g>
</svg>
