<svg width="100" height="27" viewBox="0 0 100 27" fill="none" xmlns="http://www.w3.org/2000/svg">
<path d="M0 6.59928V23.4043C1.12323 23.6509 2.24608 23.8974 3.3693 24.1439C7.74081 25.0875 11.7395 22.1466 11.6999 17.5708C11.7298 12.9251 8.00229 8.39786 3.50004 7.36765L10.573 8.92044C12.9692 9.44638 14.6763 11.5692 14.6763 14.0226C14.692 12.692 15.2093 11.3716 15.8888 10.2457C16.6295 9.01793 17.6067 7.85959 18.8162 7.0677L24.5967 3.22213L9.9204 0L0 6.59928ZM23.0413 13.89C22.0323 13.5239 20.9506 14.0928 20.1139 14.6064C19.6813 14.894 19.2487 15.182 18.8162 15.4697C17.9795 15.9833 16.8981 16.5525 15.8888 16.1865C14.9912 15.8608 14.6695 14.9067 14.6763 14.0222V26.6257C16.4887 25.4199 18.3015 24.2142 20.1139 23.0084C22.2893 21.5815 24.2396 18.7194 24.2538 16.0535C24.2582 15.1712 23.9389 14.215 23.0413 13.8892V13.89ZM32.6823 10.7941C30.0466 10.7941 28.641 12.2285 28.641 13.3267V14.3128H28.7508C29.4317 13.3491 30.7275 12.6767 32.4847 12.6767C34.3957 12.6767 35.2522 13.3939 35.2522 15.1421V15.7024H33.6706C30.1564 15.7024 28.2017 17.1143 28.2017 19.6918C28.2017 21.8209 30.2883 23.2329 32.6823 23.2329C35.9769 23.2329 37.2506 21.4847 37.2506 19.0642V15.299C37.2506 12.3854 35.6691 10.7941 32.6823 10.7941ZM35.2739 18.9073C35.2739 20.6331 34.5492 21.3503 32.77 21.3503C31.2546 21.3503 30.2442 20.521 30.2442 19.4676C30.2442 18.1453 31.3203 17.4057 33.6706 17.4057H35.2739V18.9073ZM44.1032 11.0406C41.819 11.0406 40.2374 12.8112 40.2374 16.1282V21.6416C40.2374 22.426 40.6547 23.0088 41.3797 23.0088H42.2362V16.2851C42.2362 13.7301 42.8294 12.9457 44.3885 12.9457C45.1793 12.9457 45.8162 13.2146 46.1897 13.5508H46.2996V12.5647C46.2996 11.7578 45.7064 11.0406 44.1032 11.0406ZM53.4595 10.7941C49.9232 10.7941 47.6391 13.7525 47.6391 17.1592C47.6391 21.0365 50.8018 23.2329 53.2619 23.2329C55.722 23.2329 56.6663 21.8882 56.6663 21.1261V20.2745H56.5565C55.9633 20.9917 54.8872 21.3278 53.6134 21.3278C51.7906 21.3278 49.6819 19.9831 49.6819 16.8454C49.6819 14.4473 51.2414 12.6991 53.5697 12.6991C54.712 12.6991 56.1393 13.3715 56.5569 14.268H56.6667V13.4163C56.6667 11.6906 55.217 10.7941 53.4599 10.7941H53.4595ZM64.6832 10.7941C63.607 10.7941 62.377 11.2872 61.5204 12.9009V8.39599C61.5204 7.27538 60.9934 6.87196 60.0928 6.87196H59.4996V21.6864C59.4996 22.5829 59.9168 23.0088 60.9052 23.0088H61.4764V16.1282C61.4764 13.8646 63.0359 12.7216 64.3974 12.7216C66.2203 12.7216 67.2087 13.618 67.2087 16.0161V21.6864C67.2087 22.5829 67.6259 23.0088 68.6804 23.0088H69.2075V15.9489C69.2075 12.363 67.4724 10.7941 64.6828 10.7941H64.6832ZM73.6223 9.35972C74.369 9.35972 74.9622 8.73218 74.9622 7.97016C74.9622 7.20815 74.369 6.55819 73.6223 6.55819C72.8756 6.55819 72.2604 7.20815 72.2604 7.97016C72.2604 8.73218 72.8752 9.35972 73.6223 9.35972ZM74.5666 19.2659V12.6095C74.5666 11.5561 73.8636 11.0182 73.183 11.0182H72.5682V19.5573C72.5682 21.9554 73.7762 23.1208 76.0824 23.1208C76.7854 23.1208 77.2464 22.6726 77.2464 21.9106V21.2382H76.3898C75.2916 21.2382 74.567 20.7675 74.567 19.2659H74.5666ZM87.6568 11.0182H86.9538C86.6023 13.2594 85.1526 18.235 83.4176 20.9244C81.5947 18.0557 80.6941 14.918 80.167 12.1837C80.0572 11.5785 79.7498 11.0182 78.959 11.0182H77.9707C78.5638 15.03 80.0793 19.2659 82.3194 22.6502C82.6268 23.0984 82.9562 23.2329 83.3298 23.2329H83.8789C85.7238 21.0813 87.6128 16.2851 88.2717 13.5284C88.3595 13.1922 88.5134 12.5423 88.5134 11.9819C88.5134 11.4216 88.228 11.0182 87.6568 11.0182ZM95.8709 21.3503C93.6745 21.3503 92.3126 19.9383 92.115 17.9436H95.0144C99.0337 17.9436 100 17.0695 100 14.9628C100 12.5647 97.8477 10.7941 95.5631 10.7941C92.4441 10.7941 90.0721 13.3715 90.0721 17.2488C90.0721 20.7003 92.3563 23.2329 95.5852 23.2329C98.2208 23.2329 99.5387 22.2692 99.5387 21.0141V20.1176H99.4289C98.7699 20.7675 97.6717 21.3503 95.8705 21.3503H95.8709ZM92.115 15.8369C92.1807 14.2904 93.4108 12.6319 95.3439 12.6319C97.2769 12.6319 98.0673 13.7749 98.0673 15.0748C98.0673 15.9713 97.584 16.2403 94.7507 16.2851L92.093 16.3299L92.115 15.8369Z" fill="black"/>
</svg>
