<svg width="28" height="31" viewBox="0 0 28 31" fill="none" xmlns="http://www.w3.org/2000/svg">
<path d="M18.0872 11.9288C18.9304 10.4993 20.0428 9.1507 21.4197 8.22872L28 3.75143L11.293 0L0 7.68335V27.249C1.27864 27.536 2.55686 27.8231 3.8355 28.1101C8.81187 29.2087 13.3639 25.7847 13.3188 20.4572C13.3528 15.0484 9.10953 9.77739 3.98433 8.57794L12.0359 10.3858C14.7637 10.9981 16.707 13.4697 16.707 16.3261C16.7248 14.777 17.3138 13.2396 18.0872 11.9288ZM26.2294 16.1717C25.0809 15.7455 23.8494 16.4079 22.8969 17.0063C22.4045 17.3411 21.9121 17.6764 21.4197 18.0113C20.4672 18.6093 19.2362 19.2721 18.0872 18.8459C17.0654 18.4667 16.6993 17.3559 16.707 16.3261V31C18.7701 29.5961 20.8337 28.1923 22.8969 26.7884C25.3734 25.1271 27.5935 21.7949 27.6096 18.6911C27.6147 17.6638 27.2512 16.5505 26.2294 16.1713V16.1717Z" fill="black"/>
</svg>
